<svg width="128" height="64" viewBox="0 0 128 64" fill="none" xmlns="http://www.w3.org/2000/svg">
<path d="M12.5776 38.0684H6.66748V58.0743H12.8854C18.671 58.0743 22.8555 55.0587 22.8555 47.9797C22.8555 40.9007 18.671 38.0684 12.5776 38.0684ZM12.2698 53.8276H11.9621V42.3185H12.2698C15.1644 42.3185 17.4399 43.3041 17.4399 47.9797C17.4399 52.6552 15.1609 53.8276 12.2698 53.8276Z" fill="#E21D38"/>
<path d="M41.3226 37.6983C35.7825 37.6983 32.0269 41.3917 32.0269 47.9762C32.0269 54.5607 35.7825 58.4409 41.3226 58.4409C46.8627 58.4409 50.6184 54.5642 50.6184 47.9762C50.6184 41.3883 46.8627 37.6983 41.3226 37.6983ZM41.3226 53.8864C38.9226 53.8864 37.4459 51.6109 37.4459 47.9762C37.4459 44.3416 38.9226 42.2528 41.3226 42.2528C43.7226 42.2528 45.1993 44.3451 45.1993 47.9762C45.1993 51.6074 43.7226 53.8864 41.3226 53.8864Z" fill="#E21D38"/>
<path d="M70.5862 46.5618L68.155 45.6073C66.3395 44.8984 65.2017 44.5595 65.2017 43.6085C65.2017 42.7162 66.0006 42.2528 67.2939 42.2528C68.7706 42.2528 69.9395 42.7439 71.2951 43.6984L73.9407 40.375C72.094 38.5594 69.5695 37.6983 67.2939 37.6983C62.9227 37.6983 59.8449 40.4995 59.8449 43.9163C59.8449 46.8108 61.7227 48.6264 63.8772 49.4875L66.3706 50.5353C68.0617 51.2132 69.0784 51.5209 69.0784 52.4754C69.0784 53.3676 68.4006 53.8898 66.7994 53.8898C65.3228 53.8898 63.5383 53.091 62.1204 51.9498L59.1048 55.5809C61.2593 57.521 64.1539 58.4443 66.6749 58.4443C71.6617 58.4443 74.4906 55.4288 74.4906 52.0431C74.4906 49.2731 73.0761 47.5509 70.5827 46.5653L70.5862 46.5618Z" fill="#E21D38"/>
<path d="M81.4417 42.4984H86.7328V58.0708H92.0273V42.4984H97.3219V38.0684H81.4417V42.4984Z" fill="#E21D38"/>
<path d="M116.225 38.0684V49.0241C116.225 52.593 115.239 53.8864 113.147 53.8864C111.055 53.8864 110.131 52.593 110.131 49.0241V38.0684H104.837V48.4085C104.837 55.242 107.545 58.4409 113.147 58.4409C118.749 58.4409 121.333 55.2385 121.333 48.4085V38.0684H116.225Z" fill="#E21D38"/>
<path d="M20.4866 14.0682V12.5396H7.62541V14.7148H17.305L6.66748 31.2107V32.7392H20.5869V30.5605H9.84906L20.4866 14.0682Z" fill="#E21D38"/>
<path d="M31.4839 12.1696C26.4106 12.1696 22.8521 16.0982 22.8521 22.5651C22.8521 29.032 26.4141 33.1058 31.4839 33.1058C36.5537 33.1058 40.1157 29.032 40.1157 22.5651C40.1157 16.0982 36.5571 12.1696 31.4839 12.1696ZM31.4839 30.8476C27.8769 30.8476 25.5046 27.5968 25.5046 22.5651C25.5046 17.5333 27.8769 14.4278 31.4839 14.4278C35.0908 14.4278 37.4632 17.5333 37.4632 22.5651C37.4632 27.5968 35.0908 30.8476 31.4839 30.8476Z" fill="#E21D38"/>
<path d="M57.8495 18.2215C57.8495 14.0128 54.8962 12.5361 50.7809 12.5361H44.4557V32.7357H47.0252V24.1973H50.6771L55.5394 32.7357H58.4512L53.3054 23.9068C56.0478 23.2359 57.8495 21.365 57.8495 18.2215ZM47.0252 14.6215H50.4108C53.5544 14.6215 55.2835 15.5656 55.2835 18.2215C55.2835 20.8774 53.5544 22.112 50.4108 22.112H47.0252V14.6215Z" fill="#E21D38"/>
<path d="M75.6734 24.4014H79.9512V29.6613C79.1558 30.4118 77.7587 30.8475 76.3131 30.8475C72.0042 30.8475 69.6041 27.6659 69.6041 22.5892C69.6041 17.5125 72.2186 14.4312 76.2889 14.4312C78.3189 14.4312 79.6123 15.282 80.6359 16.3367L82.0434 14.6629C80.8607 13.4422 79.0175 12.173 76.2198 12.173C70.8664 12.173 66.9482 16.1465 66.9482 22.6584C66.9482 29.1703 70.7419 33.1092 76.0711 33.1092C78.7858 33.1092 80.9991 32.1167 82.2959 30.7645V22.2745H75.6734V24.4048V24.4014Z" fill="#E21D38"/>
<path d="M99.0683 24.4671C99.0683 29.319 96.9553 30.8476 94.2787 30.8476C91.602 30.8476 89.5893 29.3225 89.5893 24.4671V12.5396H87.0198V24.3979C87.0198 30.8787 90.1564 33.1092 94.2787 33.1092C98.4009 33.1092 101.531 30.8821 101.531 24.3979V12.5396H99.0683V24.4671Z" fill="#E21D38"/>
<path d="M118.891 12.5396V22.9939C118.891 25.1069 119.088 27.3824 119.22 29.4193H119.098L116.916 25.2383L109.606 12.5396H106.95V32.7392H109.391V22.1673C109.391 20.0544 109.194 17.8999 109.063 15.856H109.187L111.366 20.0267L118.677 32.7357H121.333V12.5361H118.891V12.5396Z" fill="#E21D38"/>
<path d="M126.05 7.74994H103.063V9.70039H126.05V61.6086H1.95045V9.70039H85.4947V7.74994H1.95045H0V9.70039V61.6086V63.5591H1.95045H126.05H128V61.6086V9.70039V7.74994H126.05Z" fill="#E21D38"/>
<path d="M91.4567 3.37179L98.2625 8.41045L98.7294 8.75627L100.704 10.2191L101.866 8.65253L99.8913 7.18969L99.4245 6.84387L92.6152 1.8052L92.3973 1.64267L90.1806 0L89.0186 1.56658L91.2354 3.20925L91.4567 3.37179Z" fill="#E21D38"/>
</svg>
